<?xml version="1.0" encoding="us-ascii" standalone="no"?><svg xmlns="http://www.w3.org/2000/svg" xmlns:xlink="http://www.w3.org/1999/xlink" contentStyleType="text/css" height="1146px" preserveAspectRatio="none" style="width:3688px;height:1146px;background:#FFFFFF;" version="1.1" viewBox="0 0 3688 1146" width="3688.5px" zoomAndPan="magnify"><defs/><g><!--class java.awt.Shape--><g id="elem_java.awt.Shape"><rect codeLine="14" fill="#F1F1F1" height="48" id="java.awt.Shape" rx="3.75" ry="3.75" style="stroke:#181818;stroke-width:0.75;" width="201" x="252.75" y="540.465"/><ellipse cx="275.25" cy="564.465" fill="#ADD1B2" rx="16.5" ry="16.5" style="stroke:#181818;stroke-width:1.5;"/><path d="M279.7031,572.9259 Q278.8359,573.3713 277.875,573.5822 Q276.9141,573.8166 275.8594,573.8166 Q272.1094,573.8166 270.1172,571.3556 Q268.1484,568.8713 268.1484,564.1838 Q268.1484,559.4963 270.1172,557.0119 Q272.1094,554.5275 275.8594,554.5275 Q276.9141,554.5275 277.875,554.7619 Q278.8594,554.9963 279.7031,555.4416 L279.7031,559.5197 Q278.7656,558.6525 277.875,558.2541 Q276.9844,557.8322 276.0469,557.8322 Q274.0313,557.8322 273,559.4494 Q271.9688,561.0431 271.9688,564.1838 Q271.9688,567.3244 273,568.9416 Q274.0313,570.5353 276.0469,570.5353 Q276.9844,570.5353 277.875,570.1369 Q278.7656,569.715 279.7031,568.8478 L279.7031,572.9259 Z " fill="#000000"/><text fill="#000000" font-family="sans-serif" font-size="21" lengthAdjust="spacing" textLength="153" x="296.25" y="571.735">java.awt.Shape</text></g><!--class App--><g id="elem_App"><rect codeLine="126" fill="#F1F1F1" height="267.5625" id="App" rx="3.75" ry="3.75" style="stroke:#181818;stroke-width:0.75;" width="544.5" x="10.5" y="10.5"/><ellipse cx="256.125" cy="34.5" fill="#ADD1B2" rx="16.5" ry="16.5" style="stroke:#181818;stroke-width:1.5;"/><path d="M260.5781,42.9609 Q259.7109,43.4063 258.75,43.6172 Q257.7891,43.8516 256.7344,43.8516 Q252.9844,43.8516 250.9922,41.3906 Q249.0234,38.9063 249.0234,34.2188 Q249.0234,29.5313 250.9922,27.0469 Q252.9844,24.5625 256.7344,24.5625 Q257.7891,24.5625 258.75,24.7969 Q259.7344,25.0313 260.5781,25.4766 L260.5781,29.5547 Q259.6406,28.6875 258.75,28.2891 Q257.8594,27.8672 256.9219,27.8672 Q254.9063,27.8672 253.875,29.4844 Q252.8438,31.0781 252.8438,34.2188 Q252.8438,37.3594 253.875,38.9766 Q254.9063,40.5703 256.9219,40.5703 Q257.8594,40.5703 258.75,40.1719 Q259.6406,39.75 260.5781,38.8828 L260.5781,42.9609 Z " fill="#000000"/><text fill="#000000" font-family="sans-serif" font-size="21" lengthAdjust="spacing" textLength="40.5" x="286.875" y="41.77">App</text><line style="stroke:#181818;stroke-width:0.75;" x1="12" x2="553.5" y1="58.5" y2="58.5"/><text fill="#000000" font-family="sans-serif" font-size="21" lengthAdjust="spacing" text-decoration="underline" textLength="142.5" x="19.5" y="83.9927">-EXIT_KEY: int</text><text fill="#000000" font-family="sans-serif" font-size="21" lengthAdjust="spacing" text-decoration="underline" textLength="165" x="19.5" y="108.438">-CLEAR_KEY: int</text><text fill="#000000" font-family="sans-serif" font-size="21" lengthAdjust="spacing" text-decoration="underline" textLength="222" x="19.5" y="132.8833">-ADD_FILLED_KEY: int</text><text fill="#000000" font-family="sans-serif" font-size="21" lengthAdjust="spacing" text-decoration="underline" textLength="276" x="19.5" y="157.3286">-ADD_BORDERED_KEY: int</text><text fill="#000000" font-family="sans-serif" font-size="21" lengthAdjust="spacing" text-decoration="underline" textLength="147" x="19.5" y="181.7739">-ADD_QTY: int</text><line style="stroke:#181818;stroke-width:0.75;" x1="12" x2="553.5" y1="192.7266" y2="192.7266"/><text fill="#000000" font-family="sans-serif" font-size="21" lengthAdjust="spacing" text-decoration="underline" textLength="256.5" x="19.5" y="218.2192">+main(args: String): void</text><text fill="#000000" font-family="sans-serif" font-size="21" lengthAdjust="spacing" textLength="526.5" x="19.5" y="242.6646">-addBouncers(factory: AbstractShapeFactory): void</text><text fill="#000000" font-family="sans-serif" font-size="21" lengthAdjust="spacing" textLength="123" x="19.5" y="267.1099">+run(): void</text></g><!--class Bouncable--><g id="elem_Bouncable"><rect codeLine="119" fill="#F1F1F1" height="157.7813" id="Bouncable" rx="3.75" ry="3.75" style="stroke:#181818;stroke-width:0.75;" width="231" x="689.25" y="65.4"/><ellipse cx="744.15" cy="89.4" fill="#B4A7E5" rx="16.5" ry="16.5" style="stroke:#181818;stroke-width:1.5;"/><path d="M738.0328,83.0484 L738.0328,79.8141 L749.1188,79.8141 L749.1188,83.0484 L745.4156,83.0484 L745.4156,95.1656 L749.1188,95.1656 L749.1188,98.4 L738.0328,98.4 L738.0328,95.1656 L741.7359,95.1656 L741.7359,83.0484 L738.0328,83.0484 Z " fill="#000000"/><text fill="#000000" font-family="sans-serif" font-size="21" font-style="italic" lengthAdjust="spacing" textLength="111" x="772.35" y="96.67">Bouncable</text><line style="stroke:#181818;stroke-width:0.75;" x1="690.75" x2="918.75" y1="113.4" y2="113.4"/><text fill="#000000" font-family="sans-serif" font-size="21" lengthAdjust="spacing" textLength="138" x="698.25" y="138.8927">~draw(): void</text><text fill="#000000" font-family="sans-serif" font-size="21" lengthAdjust="spacing" textLength="145.5" x="698.25" y="163.338">~move(): void</text><text fill="#000000" font-family="sans-serif" font-size="21" lengthAdjust="spacing" textLength="189" x="698.25" y="187.7833">~getColor(): Color</text><text fill="#000000" font-family="sans-serif" font-size="21" lengthAdjust="spacing" textLength="213" x="698.25" y="212.2286">~getShape(): Shape</text></g><!--class AbstractShape--><g id="elem_AbstractShape"><rect codeLine="149" fill="#F1F1F1" height="169.7813" id="AbstractShape" rx="3.75" ry="3.75" style="stroke:#181818;stroke-width:0.75;" width="463.5" x="573" y="479.58"/><ellipse cx="722.625" cy="503.58" fill="#A9DCDF" rx="16.5" ry="16.5" style="stroke:#181818;stroke-width:1.5;"/><path d="M722.7891,496.5956 L721.0547,504.2128 L724.5469,504.2128 L722.7891,496.5956 Z M720.5625,493.2441 L725.0391,493.2441 L730.0781,511.83 L726.3984,511.83 L725.25,507.2362 L720.3281,507.2362 L719.2031,511.83 L715.5469,511.83 L720.5625,493.2441 Z " fill="#000000"/><text fill="#000000" font-family="sans-serif" font-size="21" font-style="italic" lengthAdjust="spacing" textLength="151.5" x="753.375" y="510.85">AbstractShape</text><line style="stroke:#181818;stroke-width:0.75;" x1="574.5" x2="1035" y1="527.58" y2="527.58"/><text fill="#000000" font-family="sans-serif" font-size="21" lengthAdjust="spacing" textLength="309" x="582" y="553.0727">-moveVector: Point2D.Double</text><line style="stroke:#181818;stroke-width:0.75;" x1="574.5" x2="1035" y1="564.0253" y2="564.0253"/><text fill="#000000" font-family="sans-serif" font-size="21" lengthAdjust="spacing" textLength="138" x="582" y="589.518">+draw(): void</text><text fill="#000000" font-family="sans-serif" font-size="21" lengthAdjust="spacing" textLength="213" x="582" y="613.9633">+getShape(): Shape</text><text fill="#000000" font-family="sans-serif" font-size="21" lengthAdjust="spacing" textLength="445.5" x="582" y="638.4086">#getNewBoundsAfterMove(): Rectangle2D</text></g><!--class Util--><g id="elem_Util"><rect codeLine="163" fill="#F1F1F1" height="267.5625" id="Util" rx="3.75" ry="3.75" style="stroke:#181818;stroke-width:0.75;" width="405" x="1808.25" y="430.68"/><ellipse cx="1988.625" cy="454.68" fill="#ADD1B2" rx="16.5" ry="16.5" style="stroke:#181818;stroke-width:1.5;"/><path d="M1993.0781,463.1409 Q1992.2109,463.5863 1991.25,463.7972 Q1990.2891,464.0316 1989.2344,464.0316 Q1985.4844,464.0316 1983.4922,461.5706 Q1981.5234,459.0863 1981.5234,454.3988 Q1981.5234,449.7113 1983.4922,447.2269 Q1985.4844,444.7425 1989.2344,444.7425 Q1990.2891,444.7425 1991.25,444.9769 Q1992.2344,445.2113 1993.0781,445.6566 L1993.0781,449.7347 Q1992.1406,448.8675 1991.25,448.4691 Q1990.3594,448.0472 1989.4219,448.0472 Q1987.4063,448.0472 1986.375,449.6644 Q1985.3438,451.2581 1985.3438,454.3988 Q1985.3438,457.5394 1986.375,459.1566 Q1987.4063,460.7503 1989.4219,460.7503 Q1990.3594,460.7503 1991.25,460.3519 Q1992.1406,459.93 1993.0781,459.0628 L1993.0781,463.1409 Z " fill="#000000"/><text fill="#000000" font-family="sans-serif" font-size="21" lengthAdjust="spacing" textLength="31.5" x="2019.375" y="461.95">Util</text><line style="stroke:#181818;stroke-width:0.75;" x1="1809.75" x2="2211.75" y1="478.68" y2="478.68"/><text fill="#000000" font-family="sans-serif" font-size="21" lengthAdjust="spacing" text-decoration="underline" textLength="148.5" x="1817.25" y="504.1727">-MAX_SIZE: int</text><text fill="#000000" font-family="sans-serif" font-size="21" lengthAdjust="spacing" text-decoration="underline" textLength="141" x="1817.25" y="528.618">-MIN_SIZE: int</text><text fill="#000000" font-family="sans-serif" font-size="21" lengthAdjust="spacing" text-decoration="underline" textLength="172.5" x="1817.25" y="553.0633">-MAX_SPEED: int</text><text fill="#000000" font-family="sans-serif" font-size="21" lengthAdjust="spacing" text-decoration="underline" textLength="220.5" x="1817.25" y="577.5086">+REFRESH_RATE: int</text><text fill="#000000" font-family="sans-serif" font-size="21" lengthAdjust="spacing" text-decoration="underline" textLength="187.5" x="1817.25" y="601.9539">-random: Random</text><line style="stroke:#181818;stroke-width:0.75;" x1="1809.75" x2="2211.75" y1="612.9066" y2="612.9066"/><text fill="#000000" font-family="sans-serif" font-size="21" lengthAdjust="spacing" text-decoration="underline" textLength="384" x="1817.25" y="638.3992">+getRandomPoint(): Point2D.Double</text><text fill="#000000" font-family="sans-serif" font-size="21" lengthAdjust="spacing" text-decoration="underline" textLength="387" x="1817.25" y="662.8446">+getRandomMove(): Point2D.Double</text><text fill="#000000" font-family="sans-serif" font-size="21" lengthAdjust="spacing" text-decoration="underline" textLength="237" x="1817.25" y="687.2899">+getRandomSize(): int</text></g><!--class Display--><g id="elem_Display"><rect codeLine="39" fill="#F1F1F1" height="389.7891" id="Display" rx="3.75" ry="3.75" style="stroke:#181818;stroke-width:0.75;" width="421.5" x="2332.5" y="369.57"/><ellipse cx="2500.125" cy="393.57" fill="#ADD1B2" rx="16.5" ry="16.5" style="stroke:#181818;stroke-width:1.5;"/><path d="M2504.5781,402.0309 Q2503.7109,402.4763 2502.75,402.6872 Q2501.7891,402.9216 2500.7344,402.9216 Q2496.9844,402.9216 2494.9922,400.4606 Q2493.0234,397.9763 2493.0234,393.2888 Q2493.0234,388.6013 2494.9922,386.1169 Q2496.9844,383.6325 2500.7344,383.6325 Q2501.7891,383.6325 2502.75,383.8669 Q2503.7344,384.1013 2504.5781,384.5466 L2504.5781,388.6247 Q2503.6406,387.7575 2502.75,387.3591 Q2501.8594,386.9372 2500.9219,386.9372 Q2498.9063,386.9372 2497.875,388.5544 Q2496.8438,390.1481 2496.8438,393.2888 Q2496.8438,396.4294 2497.875,398.0466 Q2498.9063,399.6403 2500.9219,399.6403 Q2501.8594,399.6403 2502.75,399.2419 Q2503.6406,398.82 2504.5781,397.9528 L2504.5781,402.0309 Z " fill="#000000"/><text fill="#000000" font-family="sans-serif" font-size="21" lengthAdjust="spacing" textLength="73.5" x="2530.875" y="400.84">Display</text><line style="stroke:#181818;stroke-width:0.75;" x1="2334" x2="2752.5" y1="417.57" y2="417.57"/><text fill="#000000" font-family="sans-serif" font-size="21" lengthAdjust="spacing" text-decoration="underline" textLength="220.5" x="2341.5" y="443.0627">-DEFAULT_WIDTH: int</text><text fill="#000000" font-family="sans-serif" font-size="21" lengthAdjust="spacing" text-decoration="underline" textLength="229.5" x="2341.5" y="467.508">-DEFAULT_HEIGHT: int</text><text fill="#000000" font-family="sans-serif" font-size="21" lengthAdjust="spacing" textLength="148.5" x="2341.5" y="491.9533">-frame: JFrame</text><text fill="#000000" font-family="sans-serif" font-size="21" lengthAdjust="spacing" textLength="139.5" x="2341.5" y="516.3986">-panel: JPanel</text><text fill="#000000" font-family="sans-serif" font-size="21" lengthAdjust="spacing" textLength="147" x="2341.5" y="540.8439">-image: Image</text><line style="stroke:#181818;stroke-width:0.75;" x1="2334" x2="2752.5" y1="551.7966" y2="551.7966"/><text fill="#000000" font-family="sans-serif" font-size="21" lengthAdjust="spacing" text-decoration="underline" textLength="243" x="2341.5" y="577.2892">+getInstance(): Display</text><text fill="#000000" font-family="sans-serif" font-size="21" lengthAdjust="spacing" textLength="165" x="2341.5" y="601.7346">+getWidth(): int</text><text fill="#000000" font-family="sans-serif" font-size="21" lengthAdjust="spacing" textLength="174" x="2341.5" y="626.1799">+getHeight(): int</text><text fill="#000000" font-family="sans-serif" font-size="21" lengthAdjust="spacing" textLength="294" x="2341.5" y="650.6252">+getGraphics(): Graphics2D</text><text fill="#000000" font-family="sans-serif" font-size="21" lengthAdjust="spacing" textLength="160.5" x="2341.5" y="675.0705">+repaint(): void</text><text fill="#000000" font-family="sans-serif" font-size="21" lengthAdjust="spacing" textLength="276" x="2341.5" y="699.5158">+setTitle(title: String): void</text><text fill="#000000" font-family="sans-serif" font-size="21" lengthAdjust="spacing" textLength="403.5" x="2341.5" y="723.9611">+addKeyListener(ka: KeyAdapter): void</text><text fill="#000000" font-family="sans-serif" font-size="21" lengthAdjust="spacing" textLength="228" x="2341.5" y="748.4064">-createImage(): Image</text></g><!--class Renderer--><g id="elem_Renderer"><rect codeLine="139" fill="#F1F1F1" height="84.4453" id="Renderer" rx="3.75" ry="3.75" style="stroke:#181818;stroke-width:0.75;" width="598.5" x="1156.5" y="522.24"/><ellipse cx="1400.625" cy="546.24" fill="#B4A7E5" rx="16.5" ry="16.5" style="stroke:#181818;stroke-width:1.5;"/><path d="M1394.5078,539.8884 L1394.5078,536.6541 L1405.5938,536.6541 L1405.5938,539.8884 L1401.8906,539.8884 L1401.8906,552.0056 L1405.5938,552.0056 L1405.5938,555.24 L1394.5078,555.24 L1394.5078,552.0056 L1398.2109,552.0056 L1398.2109,539.8884 L1394.5078,539.8884 Z " fill="#000000"/><text fill="#000000" font-family="sans-serif" font-size="21" font-style="italic" lengthAdjust="spacing" textLength="97.5" x="1431.375" y="553.51">Renderer</text><line style="stroke:#181818;stroke-width:0.75;" x1="1158" x2="1753.5" y1="570.24" y2="570.24"/><text fill="#000000" font-family="sans-serif" font-size="21" lengthAdjust="spacing" textLength="580.5" x="1165.5" y="595.7327">~display(g2d: Graphics2D, bouncable: Bouncable): void</text></g><!--class FilledFactory--><g id="elem_FilledFactory"><rect codeLine="56" fill="#F1F1F1" height="145.3359" id="FilledFactory" rx="3.75" ry="3.75" style="stroke:#181818;stroke-width:0.75;" width="277.5" x="3049.5" y="491.79"/><ellipse cx="3118.125" cy="515.79" fill="#ADD1B2" rx="16.5" ry="16.5" style="stroke:#181818;stroke-width:1.5;"/><path d="M3122.5781,524.2509 Q3121.7109,524.6963 3120.75,524.9072 Q3119.7891,525.1416 3118.7344,525.1416 Q3114.9844,525.1416 3112.9922,522.6806 Q3111.0234,520.1963 3111.0234,515.5088 Q3111.0234,510.8213 3112.9922,508.3369 Q3114.9844,505.8525 3118.7344,505.8525 Q3119.7891,505.8525 3120.75,506.0869 Q3121.7344,506.3213 3122.5781,506.7666 L3122.5781,510.8447 Q3121.6406,509.9775 3120.75,509.5791 Q3119.8594,509.1572 3118.9219,509.1572 Q3116.9063,509.1572 3115.875,510.7744 Q3114.8438,512.3681 3114.8438,515.5088 Q3114.8438,518.6494 3115.875,520.2666 Q3116.9063,521.8603 3118.9219,521.8603 Q3119.8594,521.8603 3120.75,521.4619 Q3121.6406,521.04 3122.5781,520.1728 L3122.5781,524.2509 Z " fill="#000000"/><text fill="#000000" font-family="sans-serif" font-size="21" lengthAdjust="spacing" textLength="127.5" x="3148.875" y="523.06">FilledFactory</text><line style="stroke:#181818;stroke-width:0.75;" x1="3051" x2="3325.5" y1="539.79" y2="539.79"/><text fill="#000000" font-family="sans-serif" font-size="21" lengthAdjust="spacing" text-decoration="underline" textLength="208.5" x="3058.5" y="565.2827">-renderer: Renderer</text><line style="stroke:#181818;stroke-width:0.75;" x1="3051" x2="3325.5" y1="576.2353" y2="576.2353"/><text fill="#000000" font-family="sans-serif" font-size="21" lengthAdjust="spacing" textLength="259.5" x="3058.5" y="601.728">+createSquare(): Square</text><text fill="#000000" font-family="sans-serif" font-size="21" lengthAdjust="spacing" textLength="226.5" x="3058.5" y="626.1733">+createCircle(): Circle</text></g><!--class BorderedFactory--><g id="elem_BorderedFactory"><rect codeLine="63" fill="#F1F1F1" height="145.3359" id="BorderedFactory" rx="3.75" ry="3.75" style="stroke:#181818;stroke-width:0.75;" width="277.5" x="3379.5" y="491.79"/><ellipse cx="3427.65" cy="515.79" fill="#ADD1B2" rx="16.5" ry="16.5" style="stroke:#181818;stroke-width:1.5;"/><path d="M3432.1031,524.2509 Q3431.2359,524.6963 3430.275,524.9072 Q3429.3141,525.1416 3428.2594,525.1416 Q3424.5094,525.1416 3422.5172,522.6806 Q3420.5484,520.1963 3420.5484,515.5088 Q3420.5484,510.8213 3422.5172,508.3369 Q3424.5094,505.8525 3428.2594,505.8525 Q3429.3141,505.8525 3430.275,506.0869 Q3431.2594,506.3213 3432.1031,506.7666 L3432.1031,510.8447 Q3431.1656,509.9775 3430.275,509.5791 Q3429.3844,509.1572 3428.4469,509.1572 Q3426.4312,509.1572 3425.4,510.7744 Q3424.3687,512.3681 3424.3687,515.5088 Q3424.3687,518.6494 3425.4,520.2666 Q3426.4312,521.8603 3428.4469,521.8603 Q3429.3844,521.8603 3430.275,521.4619 Q3431.1656,521.04 3432.1031,520.1728 L3432.1031,524.2509 Z " fill="#000000"/><text fill="#000000" font-family="sans-serif" font-size="21" lengthAdjust="spacing" textLength="172.5" x="3454.35" y="523.06">BorderedFactory</text><line style="stroke:#181818;stroke-width:0.75;" x1="3381" x2="3655.5" y1="539.79" y2="539.79"/><text fill="#000000" font-family="sans-serif" font-size="21" lengthAdjust="spacing" text-decoration="underline" textLength="208.5" x="3388.5" y="565.2827">-renderer: Renderer</text><line style="stroke:#181818;stroke-width:0.75;" x1="3381" x2="3655.5" y1="576.2353" y2="576.2353"/><text fill="#000000" font-family="sans-serif" font-size="21" lengthAdjust="spacing" textLength="259.5" x="3388.5" y="601.728">+createSquare(): Square</text><text fill="#000000" font-family="sans-serif" font-size="21" lengthAdjust="spacing" textLength="226.5" x="3388.5" y="626.1733">+createCircle(): Circle</text></g><!--class BorderedSquare--><g id="elem_BorderedSquare"><rect codeLine="70" fill="#F1F1F1" height="84.4453" id="BorderedSquare" rx="3.75" ry="3.75" style="stroke:#181818;stroke-width:0.75;" width="219" x="678.75" y="1051.245"/><ellipse cx="701.25" cy="1075.245" fill="#ADD1B2" rx="16.5" ry="16.5" style="stroke:#181818;stroke-width:1.5;"/><path d="M705.7031,1083.7059 Q704.8359,1084.1513 703.875,1084.3622 Q702.9141,1084.5966 701.8594,1084.5966 Q698.1094,1084.5966 696.1172,1082.1356 Q694.1484,1079.6513 694.1484,1074.9638 Q694.1484,1070.2763 696.1172,1067.7919 Q698.1094,1065.3075 701.8594,1065.3075 Q702.9141,1065.3075 703.875,1065.5419 Q704.8594,1065.7763 705.7031,1066.2216 L705.7031,1070.2997 Q704.7656,1069.4325 703.875,1069.0341 Q702.9844,1068.6122 702.0469,1068.6122 Q700.0313,1068.6122 699,1070.2294 Q697.9688,1071.8231 697.9688,1074.9638 Q697.9688,1078.1044 699,1079.7216 Q700.0313,1081.3153 702.0469,1081.3153 Q702.9844,1081.3153 703.875,1080.9169 Q704.7656,1080.495 705.7031,1079.6278 L705.7031,1083.7059 Z " fill="#000000"/><text fill="#000000" font-family="sans-serif" font-size="21" lengthAdjust="spacing" textLength="171" x="722.25" y="1082.515">BorderedSquare</text><line style="stroke:#181818;stroke-width:0.75;" x1="680.25" x2="896.25" y1="1099.245" y2="1099.245"/><text fill="#000000" font-family="sans-serif" font-size="21" lengthAdjust="spacing" textLength="189" x="687.75" y="1124.7377">+getColor(): Color</text></g><!--class FilledCircle--><g id="elem_FilledCircle"><rect codeLine="74" fill="#F1F1F1" height="84.4453" id="FilledCircle" rx="3.75" ry="3.75" style="stroke:#181818;stroke-width:0.75;" width="207" x="128.25" y="1051.245"/><ellipse cx="173.025" cy="1075.245" fill="#ADD1B2" rx="16.5" ry="16.5" style="stroke:#181818;stroke-width:1.5;"/><path d="M177.4781,1083.7059 Q176.6109,1084.1513 175.65,1084.3622 Q174.6891,1084.5966 173.6344,1084.5966 Q169.8844,1084.5966 167.8922,1082.1356 Q165.9234,1079.6513 165.9234,1074.9638 Q165.9234,1070.2763 167.8922,1067.7919 Q169.8844,1065.3075 173.6344,1065.3075 Q174.6891,1065.3075 175.65,1065.5419 Q176.6344,1065.7763 177.4781,1066.2216 L177.4781,1070.2997 Q176.5406,1069.4325 175.65,1069.0341 Q174.7594,1068.6122 173.8219,1068.6122 Q171.8062,1068.6122 170.775,1070.2294 Q169.7437,1071.8231 169.7437,1074.9638 Q169.7437,1078.1044 170.775,1079.7216 Q171.8062,1081.3153 173.8219,1081.3153 Q174.7594,1081.3153 175.65,1080.9169 Q176.5406,1080.495 177.4781,1079.6278 L177.4781,1083.7059 Z " fill="#000000"/><text fill="#000000" font-family="sans-serif" font-size="21" lengthAdjust="spacing" textLength="109.5" x="198.975" y="1082.515">FilledCircle</text><line style="stroke:#181818;stroke-width:0.75;" x1="129.75" x2="333.75" y1="1099.245" y2="1099.245"/><text fill="#000000" font-family="sans-serif" font-size="21" lengthAdjust="spacing" textLength="189" x="137.25" y="1124.7377">+getColor(): Color</text></g><!--class BorderedRenderer--><g id="elem_BorderedRenderer"><rect codeLine="78" fill="#F1F1F1" height="108.8906" id="BorderedRenderer" rx="3.75" ry="3.75" style="stroke:#181818;stroke-width:0.75;" width="598.5" x="1098" y="850.86"/><ellipse cx="1293.375" cy="874.86" fill="#ADD1B2" rx="16.5" ry="16.5" style="stroke:#181818;stroke-width:1.5;"/><path d="M1297.8281,883.3209 Q1296.9609,883.7663 1296,883.9772 Q1295.0391,884.2116 1293.9844,884.2116 Q1290.2344,884.2116 1288.2422,881.7506 Q1286.2734,879.2663 1286.2734,874.5788 Q1286.2734,869.8913 1288.2422,867.4069 Q1290.2344,864.9225 1293.9844,864.9225 Q1295.0391,864.9225 1296,865.1569 Q1296.9844,865.3913 1297.8281,865.8366 L1297.8281,869.9147 Q1296.8906,869.0475 1296,868.6491 Q1295.1094,868.2272 1294.1719,868.2272 Q1292.1563,868.2272 1291.125,869.8444 Q1290.0938,871.4381 1290.0938,874.5788 Q1290.0938,877.7194 1291.125,879.3366 Q1292.1563,880.9303 1294.1719,880.9303 Q1295.1094,880.9303 1296,880.5319 Q1296.8906,880.11 1297.8281,879.2428 L1297.8281,883.3209 Z " fill="#000000"/><text fill="#000000" font-family="sans-serif" font-size="21" lengthAdjust="spacing" textLength="195" x="1324.125" y="882.13">BorderedRenderer</text><line style="stroke:#181818;stroke-width:0.75;" x1="1099.5" x2="1695" y1="898.86" y2="898.86"/><text fill="#000000" font-family="sans-serif" font-size="21" lengthAdjust="spacing" text-decoration="underline" textLength="364.5" x="1107" y="924.3527">+getInstance(): BorderedRenderer</text><text fill="#000000" font-family="sans-serif" font-size="21" lengthAdjust="spacing" textLength="580.5" x="1107" y="948.798">+display(g2d: Graphics2D, bouncable: Bouncable): void</text></g><!--class BorderedRenderer$Instance--><g id="elem_BorderedRenderer$Instance"><rect codeLine="83" fill="#F1F1F1" height="84.4453" id="BorderedRenderer$Instance" rx="3.75" ry="3.75" style="stroke:#181818;stroke-width:0.75;" width="345" x="1224.75" y="1051.245"/><ellipse cx="1247.25" cy="1075.245" fill="#ADD1B2" rx="16.5" ry="16.5" style="stroke:#181818;stroke-width:1.5;"/><path d="M1251.7031,1083.7059 Q1250.8359,1084.1513 1249.875,1084.3622 Q1248.9141,1084.5966 1247.8594,1084.5966 Q1244.1094,1084.5966 1242.1172,1082.1356 Q1240.1484,1079.6513 1240.1484,1074.9638 Q1240.1484,1070.2763 1242.1172,1067.7919 Q1244.1094,1065.3075 1247.8594,1065.3075 Q1248.9141,1065.3075 1249.875,1065.5419 Q1250.8594,1065.7763 1251.7031,1066.2216 L1251.7031,1070.2997 Q1250.7656,1069.4325 1249.875,1069.0341 Q1248.9844,1068.6122 1248.0469,1068.6122 Q1246.0313,1068.6122 1245,1070.2294 Q1243.9688,1071.8231 1243.9688,1074.9638 Q1243.9688,1078.1044 1245,1079.7216 Q1246.0313,1081.3153 1248.0469,1081.3153 Q1248.9844,1081.3153 1249.875,1080.9169 Q1250.7656,1080.495 1251.7031,1079.6278 L1251.7031,1083.7059 Z " fill="#000000"/><text fill="#000000" font-family="sans-serif" font-size="21" lengthAdjust="spacing" textLength="297" x="1268.25" y="1082.515">BorderedRenderer$Instance</text><line style="stroke:#181818;stroke-width:0.75;" x1="1226.25" x2="1568.25" y1="1099.245" y2="1099.245"/><text fill="#000000" font-family="sans-serif" font-size="21" lengthAdjust="spacing" text-decoration="underline" textLength="304.5" x="1233.75" y="1124.7377">-instance: BorderedRenderer</text></g><!--class BorderedCircle--><g id="elem_BorderedCircle"><rect codeLine="87" fill="#F1F1F1" height="84.4453" id="BorderedCircle" rx="3.75" ry="3.75" style="stroke:#181818;stroke-width:0.75;" width="207" x="387.75" y="1051.245"/><ellipse cx="412.275" cy="1075.245" fill="#ADD1B2" rx="16.5" ry="16.5" style="stroke:#181818;stroke-width:1.5;"/><path d="M416.7281,1083.7059 Q415.8609,1084.1513 414.9,1084.3622 Q413.9391,1084.5966 412.8844,1084.5966 Q409.1344,1084.5966 407.1422,1082.1356 Q405.1734,1079.6513 405.1734,1074.9638 Q405.1734,1070.2763 407.1422,1067.7919 Q409.1344,1065.3075 412.8844,1065.3075 Q413.9391,1065.3075 414.9,1065.5419 Q415.8844,1065.7763 416.7281,1066.2216 L416.7281,1070.2997 Q415.7906,1069.4325 414.9,1069.0341 Q414.0094,1068.6122 413.0719,1068.6122 Q411.0563,1068.6122 410.025,1070.2294 Q408.9938,1071.8231 408.9938,1074.9638 Q408.9938,1078.1044 410.025,1079.7216 Q411.0563,1081.3153 413.0719,1081.3153 Q414.0094,1081.3153 414.9,1080.9169 Q415.7906,1080.495 416.7281,1079.6278 L416.7281,1083.7059 Z " fill="#000000"/><text fill="#000000" font-family="sans-serif" font-size="21" lengthAdjust="spacing" textLength="154.5" x="433.725" y="1082.515">BorderedCircle</text><line style="stroke:#181818;stroke-width:0.75;" x1="389.25" x2="593.25" y1="1099.245" y2="1099.245"/><text fill="#000000" font-family="sans-serif" font-size="21" lengthAdjust="spacing" textLength="189" x="396.75" y="1124.7377">+getColor(): Color</text></g><!--class AbstractShapeFactory--><g id="elem_AbstractShapeFactory"><rect codeLine="91" fill="#F1F1F1" height="108.8906" id="AbstractShapeFactory" rx="3.75" ry="3.75" style="stroke:#181818;stroke-width:0.75;" width="277.5" x="3214.5" y="89.85"/><ellipse cx="3238.35" cy="113.85" fill="#A9DCDF" rx="16.5" ry="16.5" style="stroke:#181818;stroke-width:1.5;"/><path d="M3238.5141,106.8656 L3236.7797,114.4828 L3240.2719,114.4828 L3238.5141,106.8656 Z M3236.2875,103.5141 L3240.7641,103.5141 L3245.8031,122.1 L3242.1234,122.1 L3240.975,117.5062 L3236.0531,117.5062 L3234.9281,122.1 L3231.2719,122.1 L3236.2875,103.5141 Z " fill="#000000"/><text fill="#000000" font-family="sans-serif" font-size="21" font-style="italic" lengthAdjust="spacing" textLength="226.5" x="3259.65" y="121.12">AbstractShapeFactory</text><line style="stroke:#181818;stroke-width:0.75;" x1="3216" x2="3490.5" y1="137.85" y2="137.85"/><text fill="#000000" font-family="sans-serif" font-size="21" font-style="italic" lengthAdjust="spacing" textLength="259.5" x="3223.5" y="163.3427">+createSquare(): Square</text><text fill="#000000" font-family="sans-serif" font-size="21" font-style="italic" lengthAdjust="spacing" textLength="226.5" x="3223.5" y="187.788">+createCircle(): Circle</text></g><!--class FilledRenderer--><g id="elem_FilledRenderer"><rect codeLine="96" fill="#F1F1F1" height="108.8906" id="FilledRenderer" rx="3.75" ry="3.75" style="stroke:#181818;stroke-width:0.75;" width="598.5" x="1749" y="850.86"/><ellipse cx="1966.875" cy="874.86" fill="#ADD1B2" rx="16.5" ry="16.5" style="stroke:#181818;stroke-width:1.5;"/><path d="M1971.3281,883.3209 Q1970.4609,883.7663 1969.5,883.9772 Q1968.5391,884.2116 1967.4844,884.2116 Q1963.7344,884.2116 1961.7422,881.7506 Q1959.7734,879.2663 1959.7734,874.5788 Q1959.7734,869.8913 1961.7422,867.4069 Q1963.7344,864.9225 1967.4844,864.9225 Q1968.5391,864.9225 1969.5,865.1569 Q1970.4844,865.3913 1971.3281,865.8366 L1971.3281,869.9147 Q1970.3906,869.0475 1969.5,868.6491 Q1968.6094,868.2272 1967.6719,868.2272 Q1965.6563,868.2272 1964.625,869.8444 Q1963.5938,871.4381 1963.5938,874.5788 Q1963.5938,877.7194 1964.625,879.3366 Q1965.6563,880.9303 1967.6719,880.9303 Q1968.6094,880.9303 1969.5,880.5319 Q1970.3906,880.11 1971.3281,879.2428 L1971.3281,883.3209 Z " fill="#000000"/><text fill="#000000" font-family="sans-serif" font-size="21" lengthAdjust="spacing" textLength="150" x="1997.625" y="882.13">FilledRenderer</text><line style="stroke:#181818;stroke-width:0.75;" x1="1750.5" x2="2346" y1="898.86" y2="898.86"/><text fill="#000000" font-family="sans-serif" font-size="21" lengthAdjust="spacing" text-decoration="underline" textLength="319.5" x="1758" y="924.3527">+getInstance(): FilledRenderer</text><text fill="#000000" font-family="sans-serif" font-size="21" lengthAdjust="spacing" textLength="580.5" x="1758" y="948.798">+display(g2d: Graphics2D, bouncable: Bouncable): void</text></g><!--class FilledRenderer$Instance--><g id="elem_FilledRenderer$Instance"><rect codeLine="101" fill="#F1F1F1" height="84.4453" id="FilledRenderer$Instance" rx="3.75" ry="3.75" style="stroke:#181818;stroke-width:0.75;" width="300" x="1898.25" y="1051.245"/><ellipse cx="1920.75" cy="1075.245" fill="#ADD1B2" rx="16.5" ry="16.5" style="stroke:#181818;stroke-width:1.5;"/><path d="M1925.2031,1083.7059 Q1924.3359,1084.1513 1923.375,1084.3622 Q1922.4141,1084.5966 1921.3594,1084.5966 Q1917.6094,1084.5966 1915.6172,1082.1356 Q1913.6484,1079.6513 1913.6484,1074.9638 Q1913.6484,1070.2763 1915.6172,1067.7919 Q1917.6094,1065.3075 1921.3594,1065.3075 Q1922.4141,1065.3075 1923.375,1065.5419 Q1924.3594,1065.7763 1925.2031,1066.2216 L1925.2031,1070.2997 Q1924.2656,1069.4325 1923.375,1069.0341 Q1922.4844,1068.6122 1921.5469,1068.6122 Q1919.5313,1068.6122 1918.5,1070.2294 Q1917.4688,1071.8231 1917.4688,1074.9638 Q1917.4688,1078.1044 1918.5,1079.7216 Q1919.5313,1081.3153 1921.5469,1081.3153 Q1922.4844,1081.3153 1923.375,1080.9169 Q1924.2656,1080.495 1925.2031,1079.6278 L1925.2031,1083.7059 Z " fill="#000000"/><text fill="#000000" font-family="sans-serif" font-size="21" lengthAdjust="spacing" textLength="252" x="1941.75" y="1082.515">FilledRenderer$Instance</text><line style="stroke:#181818;stroke-width:0.75;" x1="1899.75" x2="2196.75" y1="1099.245" y2="1099.245"/><text fill="#000000" font-family="sans-serif" font-size="21" lengthAdjust="spacing" text-decoration="underline" textLength="259.5" x="1907.25" y="1124.7377">-instance: FilledRenderer</text></g><!--class Displayer--><g id="elem_Displayer"><rect codeLine="105" fill="#F1F1F1" height="206.6719" id="Displayer" rx="3.75" ry="3.75" style="stroke:#181818;stroke-width:0.75;" width="477" x="2304.75" y="40.95"/><ellipse cx="2489.625" cy="64.95" fill="#B4A7E5" rx="16.5" ry="16.5" style="stroke:#181818;stroke-width:1.5;"/><path d="M2483.5078,58.5984 L2483.5078,55.3641 L2494.5938,55.3641 L2494.5938,58.5984 L2490.8906,58.5984 L2490.8906,70.7156 L2494.5938,70.7156 L2494.5938,73.95 L2483.5078,73.95 L2483.5078,70.7156 L2487.2109,70.7156 L2487.2109,58.5984 L2483.5078,58.5984 Z " fill="#000000"/><text fill="#000000" font-family="sans-serif" font-size="21" font-style="italic" lengthAdjust="spacing" textLength="94.5" x="2520.375" y="72.22">Displayer</text><line style="stroke:#181818;stroke-width:0.75;" x1="2306.25" x2="2780.25" y1="88.95" y2="88.95"/><text fill="#000000" font-family="sans-serif" font-size="21" lengthAdjust="spacing" textLength="165" x="2313.75" y="114.4427">~getWidth(): int</text><text fill="#000000" font-family="sans-serif" font-size="21" lengthAdjust="spacing" textLength="174" x="2313.75" y="138.888">~getHeight(): int</text><text fill="#000000" font-family="sans-serif" font-size="21" lengthAdjust="spacing" textLength="294" x="2313.75" y="163.3333">~getGraphics(): Graphics2D</text><text fill="#000000" font-family="sans-serif" font-size="21" lengthAdjust="spacing" textLength="160.5" x="2313.75" y="187.7786">~repaint(): void</text><text fill="#000000" font-family="sans-serif" font-size="21" lengthAdjust="spacing" textLength="276" x="2313.75" y="212.2239">~setTitle(title: String): void</text><text fill="#000000" font-family="sans-serif" font-size="21" lengthAdjust="spacing" textLength="459" x="2313.75" y="236.6692">~addKeyListener(adapter: KeyAdapter): void</text></g><!--class Circle--><g id="elem_Circle"><rect codeLine="114" fill="#F1F1F1" height="108.8906" id="Circle" rx="3.75" ry="3.75" style="stroke:#181818;stroke-width:0.75;" width="261" x="344.25" y="850.86"/><ellipse cx="439.875" cy="874.86" fill="#A9DCDF" rx="16.5" ry="16.5" style="stroke:#181818;stroke-width:1.5;"/><path d="M440.0391,867.8756 L438.3047,875.4928 L441.7969,875.4928 L440.0391,867.8756 Z M437.8125,864.5241 L442.2891,864.5241 L447.3281,883.11 L443.6484,883.11 L442.5,878.5163 L437.5781,878.5163 L436.4531,883.11 L432.7969,883.11 L437.8125,864.5241 Z " fill="#000000"/><text fill="#000000" font-family="sans-serif" font-size="21" font-style="italic" lengthAdjust="spacing" textLength="57" x="470.625" y="882.13">Circle</text><line style="stroke:#181818;stroke-width:0.75;" x1="345.75" x2="603.75" y1="898.86" y2="898.86"/><text fill="#000000" font-family="sans-serif" font-size="21" lengthAdjust="spacing" textLength="243" x="353.25" y="924.3527">+getShape(): Ellipse2D</text><text fill="#000000" font-family="sans-serif" font-size="21" lengthAdjust="spacing" textLength="145.5" x="353.25" y="948.798">+move(): void</text></g><!--class AppTest--><!--class FilledSquare--><g id="elem_FilledSquare"><rect codeLine="145" fill="#F1F1F1" height="84.4453" id="FilledSquare" rx="3.75" ry="3.75" style="stroke:#181818;stroke-width:0.75;" width="207" x="950.25" y="1051.245"/><ellipse cx="987.6" cy="1075.245" fill="#ADD1B2" rx="16.5" ry="16.5" style="stroke:#181818;stroke-width:1.5;"/><path d="M992.0531,1083.7059 Q991.1859,1084.1513 990.225,1084.3622 Q989.2641,1084.5966 988.2094,1084.5966 Q984.4594,1084.5966 982.4672,1082.1356 Q980.4984,1079.6513 980.4984,1074.9638 Q980.4984,1070.2763 982.4672,1067.7919 Q984.4594,1065.3075 988.2094,1065.3075 Q989.2641,1065.3075 990.225,1065.5419 Q991.2094,1065.7763 992.0531,1066.2216 L992.0531,1070.2997 Q991.1156,1069.4325 990.225,1069.0341 Q989.3344,1068.6122 988.3969,1068.6122 Q986.3812,1068.6122 985.35,1070.2294 Q984.3187,1071.8231 984.3187,1074.9638 Q984.3187,1078.1044 985.35,1079.7216 Q986.3812,1081.3153 988.3969,1081.3153 Q989.3344,1081.3153 990.225,1080.9169 Q991.1156,1080.495 992.0531,1079.6278 L992.0531,1083.7059 Z " fill="#000000"/><text fill="#000000" font-family="sans-serif" font-size="21" lengthAdjust="spacing" textLength="126" x="1011.9" y="1082.515">FilledSquare</text><line style="stroke:#181818;stroke-width:0.75;" x1="951.75" x2="1155.75" y1="1099.245" y2="1099.245"/><text fill="#000000" font-family="sans-serif" font-size="21" lengthAdjust="spacing" textLength="189" x="959.25" y="1124.7377">+getColor(): Color</text></g><!--class Square--><g id="elem_Square"><rect codeLine="158" fill="#F1F1F1" height="108.8906" id="Square" rx="3.75" ry="3.75" style="stroke:#181818;stroke-width:0.75;" width="381" x="657.75" y="850.86"/><ellipse cx="805.125" cy="874.86" fill="#A9DCDF" rx="16.5" ry="16.5" style="stroke:#181818;stroke-width:1.5;"/><path d="M805.2891,867.8756 L803.5547,875.4928 L807.0469,875.4928 L805.2891,867.8756 Z M803.0625,864.5241 L807.5391,864.5241 L812.5781,883.11 L808.8984,883.11 L807.75,878.5163 L802.8281,878.5163 L801.7031,883.11 L798.0469,883.11 L803.0625,864.5241 Z " fill="#000000"/><text fill="#000000" font-family="sans-serif" font-size="21" font-style="italic" lengthAdjust="spacing" textLength="73.5" x="835.875" y="882.13">Square</text><line style="stroke:#181818;stroke-width:0.75;" x1="659.25" x2="1037.25" y1="898.86" y2="898.86"/><text fill="#000000" font-family="sans-serif" font-size="21" lengthAdjust="spacing" textLength="363" x="666.75" y="924.3527">+getShape(): Rectangle2D.Double</text><text fill="#000000" font-family="sans-serif" font-size="21" lengthAdjust="spacing" textLength="145.5" x="666.75" y="948.798">+move(): void</text></g><!--link App to Bouncable--><g id="link_App_Bouncable"><path codeLine="17" d="M555.6,144.285 C602.52,144.285 639.93,144.285 679.74,144.285 " fill="none" id="App-to-Bouncable" style="stroke:#181818;stroke-width:1.5;"/><polygon fill="#181818" points="688.74,144.285,675.24,138.285,681.24,144.285,675.24,150.285,688.74,144.285" style="stroke:#181818;stroke-width:1.5;"/><polygon fill="#000000" points="595.875,127.1346,582.3074,122.7262,582.3074,131.543,595.875,127.1346" style="stroke:#000000;stroke-width:1.5;"/><text fill="#000000" font-family="sans-serif" font-size="19.5" lengthAdjust="spacing" textLength="60" x="601.875" y="133.8853">stores</text><text fill="#000000" font-family="sans-serif" font-size="19.5" lengthAdjust="spacing" textLength="12" x="567.364" y="139.4151">1</text><text fill="#000000" font-family="sans-serif" font-size="19.5" lengthAdjust="spacing" textLength="10.5" x="666.6824" y="138.822">*</text></g><!--link java.awt.Shape to AbstractShape--><g id="link_java.awt.Shape_AbstractShape"><path codeLine="18" d="M454.02,564.465 C489.36,564.465 512.67,564.465 554.295,564.465 " fill="none" id="java.awt.Shape-to-AbstractShape" style="stroke:#181818;stroke-width:1.5;"/><polygon fill="#181818" points="572.295,564.465,563.295,558.465,554.295,564.465,563.295,570.465,572.295,564.465" style="stroke:#181818;stroke-width:1.5;"/><polygon fill="#000000" points="479.625,547.3146,493.1926,551.723,493.1926,542.9062,479.625,547.3146" style="stroke:#000000;stroke-width:1.5;"/><text fill="#000000" font-family="sans-serif" font-size="19.5" lengthAdjust="spacing" textLength="45" x="500.625" y="554.0653">uses</text><text fill="#000000" font-family="sans-serif" font-size="19.5" lengthAdjust="spacing" textLength="12" x="465.698" y="558.8458">1</text></g><!--link Util to Display--><g id="link_Util_Display"><path codeLine="19" d="M2213.97,564.465 C2252.595,564.465 2293.095,564.465 2331.975,564.465 " fill="none" id="Util-Display" style="stroke:#181818;stroke-width:1.5;"/><polygon fill="#000000" points="2254.125,547.3146,2240.5574,542.9062,2240.5574,551.723,2254.125,547.3146" style="stroke:#000000;stroke-width:1.5;"/><text fill="#000000" font-family="sans-serif" font-size="19.5" lengthAdjust="spacing" textLength="45" x="2260.125" y="554.0653">uses</text><text fill="#000000" font-family="sans-serif" font-size="19.5" lengthAdjust="spacing" textLength="10.5" x="2225.3707" y="559.4558">*</text><text fill="#000000" font-family="sans-serif" font-size="19.5" lengthAdjust="spacing" textLength="12" x="2308.7718" y="559.4904">1</text></g><!--link AbstractShape to Renderer--><g id="link_AbstractShape_Renderer"><path codeLine="20" d="M1055.025,564.465 C1093.545,564.465 1106.97,564.465 1146.885,564.465 " fill="none" id="AbstractShape-Renderer" style="stroke:#181818;stroke-width:1.5;"/><polygon fill="#181818" points="1037.025,564.465,1046.025,570.465,1055.025,564.465,1046.025,558.465,1037.025,564.465" style="stroke:#181818;stroke-width:1.5;"/><polygon fill="#181818" points="1155.885,564.465,1142.385,558.465,1148.385,564.465,1142.385,570.465,1155.885,564.465" style="stroke:#181818;stroke-width:1.5;"/><polygon fill="#000000" points="1077.75,547.3146,1064.1824,542.9062,1064.1824,551.723,1077.75,547.3146" style="stroke:#000000;stroke-width:1.5;"/><text fill="#000000" font-family="sans-serif" font-size="19.5" lengthAdjust="spacing" textLength="45" x="1083.75" y="554.0653">uses</text><text fill="#000000" font-family="sans-serif" font-size="19.5" lengthAdjust="spacing" textLength="12" x="1132.893" y="559.6647">1</text></g><!--link Display to Display--><g id="link_Display_Display"><path codeLine="21" d="M2754.45,523.635 C2785.53,530.055 2806.5,543.66 2806.5,564.465 C2806.5,585.255 2785.53,598.875 2754.45,605.295 " fill="none" id="Display-Display" style="stroke:#181818;stroke-width:1.5;"/><text fill="#000000" font-family="sans-serif" font-size="19.5" lengthAdjust="spacing" textLength="198" x="2815.5" y="571.3153">store single instance</text></g><!--reverse link Displayer to Display--><g id="link_Displayer_Display"><path codeLine="177" d="M2543.25,274.845 C2543.25,311.505 2543.25,327.18 2543.25,369.045 " fill="none" id="Displayer-backto-Display" style="stroke:#181818;stroke-width:1.5;stroke-dasharray:7.0,7.0;"/><polygon fill="none" points="2543.25,247.845,2534.25,274.845,2552.25,274.845,2543.25,247.845" style="stroke:#181818;stroke-width:1.5;"/></g><!--reverse link AbstractShapeFactory to FilledFactory--><g id="link_AbstractShapeFactory_FilledFactory"><path codeLine="178" d="M3322.0812,224.5781 C3292.6662,298.9631 3249.36,408.435 3216.585,491.325 " fill="none" id="AbstractShapeFactory-backto-FilledFactory" style="stroke:#181818;stroke-width:1.5;"/><polygon fill="none" points="3332.01,199.47,3313.7118,221.2685,3330.4506,227.8877,3332.01,199.47" style="stroke:#181818;stroke-width:1.5;"/></g><!--reverse link AbstractShapeFactory to BorderedFactory--><g id="link_AbstractShapeFactory_BorderedFactory"><path codeLine="179" d="M3384.4188,224.5781 C3413.8338,298.9631 3457.14,408.435 3489.915,491.325 " fill="none" id="AbstractShapeFactory-backto-BorderedFactory" style="stroke:#181818;stroke-width:1.5;"/><polygon fill="none" points="3374.49,199.47,3376.0494,227.8877,3392.7882,221.2685,3374.49,199.47" style="stroke:#181818;stroke-width:1.5;"/></g><!--reverse link Square to BorderedSquare--><g id="link_Square_BorderedSquare"><path codeLine="180" d="M822.5735,986.0457 C813.2285,1014.8907 810.21,1024.23 801.555,1050.885 " fill="none" id="Square-backto-BorderedSquare" style="stroke:#181818;stroke-width:1.5;"/><polygon fill="none" points="830.895,960.36,814.0117,983.2718,831.1354,988.8195,830.895,960.36" style="stroke:#181818;stroke-width:1.5;"/></g><!--reverse link Circle to FilledCircle--><g id="link_Circle_FilledCircle"><path codeLine="181" d="M382.9888,976.7304 C345.2938,1005.4704 321,1023.96 286.05,1050.585 " fill="none" id="Circle-backto-FilledCircle" style="stroke:#181818;stroke-width:1.5;"/><polygon fill="none" points="404.46,960.36,377.532,969.5733,388.4456,983.8874,404.46,960.36" style="stroke:#181818;stroke-width:1.5;"/></g><!--reverse link Renderer to BorderedRenderer--><g id="link_Renderer_BorderedRenderer"><path codeLine="182" d="M1443.972,633.9989 C1433.382,695.1389 1418.175,782.94 1406.505,850.35 " fill="none" id="Renderer-backto-BorderedRenderer" style="stroke:#181818;stroke-width:1.5;stroke-dasharray:7.0,7.0;"/><polygon fill="none" points="1448.58,607.395,1435.104,632.4629,1452.8399,635.5349,1448.58,607.395" style="stroke:#181818;stroke-width:1.5;"/></g><!--reverse link BorderedRenderer to BorderedRenderer$Instance--><g id="link_BorderedRenderer_BorderedRenderer$Instance"><path codeLine="183" d="M1397.25,984.36 C1397.25,1013.205 1397.25,1024.23 1397.25,1050.885 " fill="none" id="BorderedRenderer-backto-BorderedRenderer$Instance" style="stroke:#181818;stroke-width:1.5;stroke-dasharray:7.0,7.0;"/><ellipse cx="1397.25" cy="972.36" fill="#FFFFFF" rx="12" ry="12" style="stroke:#181818;stroke-width:1.5;"/><line style="stroke:#181818;stroke-width:1.5;" x1="1397.25" x2="1397.25" y1="984.36" y2="960.36"/><line style="stroke:#181818;stroke-width:1.5;" x1="1385.25" x2="1409.25" y1="972.36" y2="972.36"/></g><!--reverse link Circle to BorderedCircle--><g id="link_Circle_BorderedCircle"><path codeLine="184" d="M481.9115,987.2539 C484.4765,1016.0989 485.22,1024.23 487.59,1050.885 " fill="none" id="Circle-backto-BorderedCircle" style="stroke:#181818;stroke-width:1.5;"/><polygon fill="none" points="479.52,960.36,472.9469,988.051,490.8761,986.4567,479.52,960.36" style="stroke:#181818;stroke-width:1.5;"/></g><!--reverse link Renderer to FilledRenderer--><g id="link_Renderer_FilledRenderer"><path codeLine="185" d="M1546.326,621.1331 C1611.846,660.8381 1691.205,708.27 1781.25,759.36 C1835.565,790.17 1896.81,823.41 1946.925,850.23 " fill="none" id="Renderer-backto-FilledRenderer" style="stroke:#181818;stroke-width:1.5;stroke-dasharray:7.0,7.0;"/><polygon fill="none" points="1523.235,607.14,1541.6616,628.8301,1550.9903,613.4361,1523.235,607.14" style="stroke:#181818;stroke-width:1.5;"/></g><!--reverse link FilledRenderer to FilledRenderer$Instance--><g id="link_FilledRenderer_FilledRenderer$Instance"><path codeLine="186" d="M2048.25,984.36 C2048.25,1013.205 2048.25,1024.23 2048.25,1050.885 " fill="none" id="FilledRenderer-backto-FilledRenderer$Instance" style="stroke:#181818;stroke-width:1.5;stroke-dasharray:7.0,7.0;"/><ellipse cx="2048.25" cy="972.36" fill="#FFFFFF" rx="12" ry="12" style="stroke:#181818;stroke-width:1.5;"/><line style="stroke:#181818;stroke-width:1.5;" x1="2048.25" x2="2048.25" y1="984.36" y2="960.36"/><line style="stroke:#181818;stroke-width:1.5;" x1="2036.25" x2="2060.25" y1="972.36" y2="972.36"/></g><!--reverse link AbstractShape to Circle--><g id="link_AbstractShape_Circle"><path codeLine="187" d="M703.8934,669.2196 C642.6184,731.9496 579.555,796.515 526.965,850.35 " fill="none" id="AbstractShape-backto-Circle" style="stroke:#181818;stroke-width:1.5;"/><polygon fill="none" points="722.76,649.905,697.4552,662.9307,710.3316,675.5084,722.76,649.905" style="stroke:#181818;stroke-width:1.5;"/></g><!--reverse link Square to FilledSquare--><g id="link_Square_FilledSquare"><path codeLine="188" d="M927.7485,978.4392 C959.7435,1007.2842 978.57,1024.23 1008.15,1050.885 " fill="none" id="Square-backto-FilledSquare" style="stroke:#181818;stroke-width:1.5;"/><polygon fill="none" points="907.695,960.36,921.7221,985.1237,933.7749,971.7547,907.695,960.36" style="stroke:#181818;stroke-width:1.5;"/></g><!--reverse link Bouncable to AbstractShape--><g id="link_Bouncable_AbstractShape"><path codeLine="189" d="M804.75,250.77 C804.75,323.4 804.75,404.4 804.75,478.92 " fill="none" id="Bouncable-backto-AbstractShape" style="stroke:#181818;stroke-width:1.5;stroke-dasharray:7.0,7.0;"/><polygon fill="none" points="804.75,223.77,795.75,250.77,813.75,250.77,804.75,223.77" style="stroke:#181818;stroke-width:1.5;"/></g><!--reverse link AbstractShape to Square--><g id="link_AbstractShape_Square"><path codeLine="190" d="M819.0101,676.6843 C827.0801,739.4143 834.435,796.515 841.365,850.35 " fill="none" id="AbstractShape-backto-Square" style="stroke:#181818;stroke-width:1.5;"/><polygon fill="none" points="815.565,649.905,810.0836,677.8327,827.9365,675.536,815.565,649.905" style="stroke:#181818;stroke-width:1.5;"/></g><!--SRC=[lLVhRzis4F-kluB81jYBPsCDq2z6a4A9vCQhyvYjFZOC26ZfR7Eb9PMaadfj_BVlIBqVYGi4s8VM5E_ukxlVFSZqoCAplUc5rICBjUDWRLW0n8vZ3wIov6SMnbJGBGcO05-nA2GgYl4VMKPAHTjK7RQnsf4jR9SWPENGYdszOCBdCADBu3Vt83YDOnQkYH89L1HzJgMqbH9icIYO-b6uOFy2-SsIe8W4hQGYGS8en5C-vK1UZLvRLk-AIQdXuAi24LAU0e6qUjwDSpCc0YZdEv98M2MSlB6CcFn3x-c8FgZHOaDZG1YIuw0qyXdLSKeBII17huw6PqV7H-GyIaAVBZcCYKHNG98porvA9QYl30mv7d9OgI6UQ1WOQ_jQ_xrYd22OqN6OZ3dT5S8cs9bMcaCOW01HQ6Mdo71O0XX_YFOVUM6XL3Jq8MT0RgA41qX42aIMWEiO_OTGGO3gf6PuWej8x90gPEKsaef4COYCa1wPkrSt7zmSs-zXZQ1v5Fi4bqCVo9UaXq6kQAB8lQ1iYsO8rpOLq-RV8CZeUAd9n58Pu_gqOFOCPKDqs51clFaxj5viAyXfolX2JBsTyrJTjtehB3AQyM4SCIw98WjvFZGxxhMJjKvMLdbklbb3yYtrz94uxiH-F_FkFauTxtACVAikwQKxVNlfvU8LjWGwzlj4_-9tJ4FW-7shV_6RRUaQvLFzOmrAj3MeQHPM_vSYCDH0mKSMg8tUrIRCpYMmzKRLjjuA6c-OB_LclZvnK8ObGr5Bxzz7BC0TR4oFAGvzfV_7V67lXkjIJeFW7UncJ2e8GVG_qp71RpkWCNPghZOaFdOeDhoEH8Ed8JrQEQKJnZa4UL7MYEr8oY23Mtn9g31uwQeGfCD82z9LnT9v93J8_sehFO6c3FaN4O-4qTSBhLxb80Kvf9iZvsuQ_QVgewcCgbcpzDSdGRK2VYNBSlmL_PfdyKdhF-VMwcoMhTVoe0LrAEoyMTF1tptB30UvukEJQMkgT2Mmcf4VuhYk-cA6wt07-MrOHnXiOX0hYaUowM3ytxScnBuz8VRFJ8XzQqBi3qo8VND2q7GqT8s9TfxhPM6ohIsxdBDOWXbPs-WU-XM4ClA2NXDv8EX3nUlQiNr7qUrh5jCNH94V_MIevSBzDFNkthb_jYR_nSorvvqIst7k9jFPp7MU59_Vp1rt_ep27rwsNotDBIQeJyLQDdCnrBaup-xa_Yfjct5dCvK3NYHXbTuAlvN6sB-mthDtA28zrZhWqEHyRYpWAOnOv_a3w9Z6-Cv1vq-SaHCbw8HkqcfD33eI_fFUkuO7xNaWxHM6VfKLpXn1gNwAOHLgNXgkr3qlO2kdIZUQ9PmYc5TahSYkx4ztY-bVRgiKhgRNJmZqYLlNTVBBlv3CtSdSNLpUpMslVKpGC8YswAtvROozTDDmgPrkaThMpIdx0LNzvq0-Y3IhbbNEhzFler7nsEcy0Kw_utkvzfPuHg_n4h2oZDLasQMHZQ4AV7PL52rWV6jTSwrhUj2XLKptcfdwnTWmr9ZtZNjgqD8eJTGxn5ZAB5J3hpQVLOvHOxk6q8MN7liF]--></g></svg>